<svg xmlns="http://www.w3.org/2000/svg" viewBox="0 0 135.33 69"><defs><style>.cls-1,.cls-2,.cls-3,.cls-4{fill:none;stroke:#b9bacc;}.cls-1,.cls-3,.cls-4{stroke-linecap:round;}.cls-1,.cls-2,.cls-3{stroke-linejoin:round;}.cls-1,.cls-2{stroke-width:0.75px;}.cls-3{stroke-width:2px;}.cls-4{stroke-miterlimit:10;stroke-width:0.55px;}</style></defs><title>юре</title><g id="файлик"><path class="cls-1" d="M68.22,48.25a1.92,1.92,0,0,0,1.51,1,1.79,1.79,0,0,0,1.62-1"/><path class="cls-2" d="M62.19,58.82a8.56,8.56,0,0,0,0,8.3H57.25"/><path class="cls-2" d="M77.27,58.82a8.56,8.56,0,0,0,0,8.3H72.33"/><path class="cls-2" d="M56.46,46.41a8,8,0,0,0-4.53,3.72,7.86,7.86,0,0,0-.86,4.72"/><path class="cls-3" d="M62.76,45.56a8.67,8.67,0,0,1,0,2"/><path class="cls-3" d="M76.92,45.56a8.67,8.67,0,0,1,0,2"/><line class="cls-4" x1="84.7" y1="67.12" x2="100.39" y2="67.12"/><line class="cls-4" x1="102.71" y1="67.12" x2="104.8" y2="67.12"/><line class="cls-4" x1="122.66" y1="67.12" x2="124.75" y2="67.12"/><line class="cls-4" x1="107.66" y1="67.12" x2="112.47" y2="67.12"/><line class="cls-4" x1="128.02" y1="67.12" x2="132.83" y2="67.12"/><line class="cls-4" x1="35.02" y1="67.12" x2="36.68" y2="67.12"/><line class="cls-4" x1="16.83" y1="67.11" x2="19.5" y2="67.11"/><line class="cls-4" x1="3.03" y1="67.11" x2="7.88" y2="67.11"/><line class="cls-4" x1="40.75" y1="67.12" x2="50.41" y2="67.12"/><path class="cls-4" d="M97.67,65.8l-1.74-4.3L93.88,63l-1.33,4.08h2.78"/><path class="cls-4" d="M46.56,66.46l-.87-2.15-1,.77-.67,2h1.39"/><path class="cls-2" d="M83.56,34.11H76.12a1,1,0,0,1-1-1c0-.86,0-1.77,0-2.73a35.07,35.07,0,0,0-.57-5.17H56a.75.75,0,0,0-.75.86,110.38,110.38,0,0,1,1.16,15.81A110.38,110.38,0,0,1,55.3,58a.75.75,0,0,0,.75.86H82a.76.76,0,0,0,.75-.65,122.33,122.33,0,0,0,1.07-16.31C83.82,39.15,83.72,36.57,83.56,34.11Z"/><path class="cls-2" d="M75.12,33.15a1,1,0,0,0,1,1h7.44v0l-8.88-8.88h-.1a35.07,35.07,0,0,1,.57,5.17C75.16,31.38,75.16,32.29,75.12,33.15Z"/><path class="cls-4" d="M71.34,2.31a64.9,64.9,0,0,1,61.49,64.81"/><path class="cls-4" d="M14.68,30A64.83,64.83,0,0,1,66.25,2.24"/><path class="cls-4" d="M9.49,38.84q.56-1.16,1.17-2.29"/><path class="cls-4" d="M3,67.12a64.68,64.68,0,0,1,5.5-26.18"/></g><g id="Стрелка"><line class="cls-4" x1="71.34" y1="10.22" x2="71.34" y2="2.22"/><line class="cls-4" x1="66.25" y1="2.22" x2="66.25" y2="10.22"/></g></svg>