<svg width="41" height="25" viewBox="0 0 41 25" fill="none" xmlns="http://www.w3.org/2000/svg">
<path d="M11.9484 10.5136L8.52887 11.9082C8.32696 10.7793 8.44562 9.86039 8.6416 9.21668C8.8248 8.61493 9.45991 8.28494 10.0224 8.56645C10.9232 9.01723 11.6433 9.97 11.9484 10.5136Z" stroke="#B9BACC" stroke-width="0.5"/>
<path d="M32.8541 17.539C33.7754 13.8538 31.9344 6.66913 16.9528 7.97777C16.8212 7.01885 15.9939 4.87539 13.7376 3.97288M13.7376 3.97288C13.8504 2.65672 13.5345 0.328992 11.3685 1.54738C10.748 1.32175 9.4281 1.31047 9.11222 3.07037M13.7376 3.97288C13.7219 4.37794 13.3174 5.19458 13.1171 5.55227C12.6207 3.34112 10.2404 2.97635 9.11222 3.07037M9.11222 3.07037C8.18499 3.07037 6.08254 3.39406 4.33029 4.61156M4.33029 4.61156C4.09274 4.77661 3.86162 4.95809 3.64075 5.15742C3.45272 5.8155 3.26847 7.5942 4.0356 9.44434C1.98615 8.72986 -1.34562 6.72553 1.72291 4.42413C1.86297 3.9098 2.58051 3.22723 4.33029 4.61156Z" stroke="#B9BACC" stroke-width="0.5"/>
<path d="M2.11773 8.44915C1.47845 9.99094 0.888065 14.1801 4.09197 16.5717C3.28347 19.0912 4.05812 24.1754 13.6247 24.3559C17.5732 24.4875 26.0906 24.5928 28.5725 23.961C30.8664 23.8482 35.8039 23.6113 37.2028 23.5662C39.5547 23.4903 42.1257 21.5355 37.5976 21.5355H36.808C36.5071 19.3545 34.4389 15.7256 28.5725 18.6588" stroke="#B9BACC" stroke-width="0.5"/>
<path d="M38.1216 21.5621C38.3433 21.9459 38.7561 22.8286 38.6333 23.2891" stroke="#B9BACC" stroke-width="0.5"/>
<path d="M35.0132 14.2366C35.2349 14.6204 35.5155 15.2179 35.3927 15.6785" stroke="#B9BACC" stroke-width="0.5"/>
<path d="M31.0879 11.0767C32.0861 11.0359 34.3687 11.6353 34.5643 14.3244C36.52 13.6521 38.6371 15.5498 33.0755 16.0999" stroke="#B9BACC" stroke-width="0.5"/>
<path d="M7.46488 17.7211C7.49649 17.8555 7.63106 17.9389 7.76547 17.9073C7.89987 17.8757 7.98321 17.7411 7.95161 17.6067L7.46488 17.7211ZM4.12915 16.4895L3.88058 16.4629L3.86425 16.615L3.99237 16.6988L4.12915 16.4895ZM7.36802 16.3432L7.6087 16.2756L7.36802 16.3432ZM5.10817 12.6569L4.93492 12.4766L5.10817 12.6569ZM5.36114 15.5859C5.46434 15.6776 5.62236 15.6683 5.71409 15.5651C5.80582 15.4619 5.79652 15.3039 5.69333 15.2122L5.36114 15.5859ZM7.5342 16.9593L7.29218 17.0219L7.5342 16.9593ZM9.07704 17.4931C9.21433 17.4784 9.31369 17.3551 9.29899 17.2179C9.28428 17.0806 9.16106 16.9812 9.02378 16.9959L9.07704 17.4931ZM3.99237 16.6988C4.34386 16.9285 4.93433 17.1938 5.58306 17.2504C6.23994 17.3077 6.97174 17.1505 7.55297 16.5114L7.18306 16.175C6.73155 16.6715 6.16858 16.7996 5.62653 16.7523C5.07635 16.7043 4.56376 16.4749 4.26593 16.2803L3.99237 16.6988ZM7.6087 16.2756C7.29709 15.1664 6.91269 14.0441 6.50517 13.2842C6.30476 12.9105 6.08107 12.5899 5.83224 12.4151C5.70329 12.3245 5.5512 12.2616 5.38277 12.2691C5.21138 12.2767 5.06091 12.3555 4.93492 12.4766L5.28141 12.8371C5.34184 12.779 5.38241 12.7696 5.40501 12.7686C5.43058 12.7675 5.47546 12.7755 5.54481 12.8242C5.69259 12.9281 5.87083 13.1594 6.06454 13.5206C6.44529 14.2305 6.81797 15.3096 7.12733 16.4108L7.6087 16.2756ZM4.93492 12.4766C4.68913 12.7129 4.49284 13.1513 4.32595 13.7785C4.15573 14.4182 4.00551 15.2979 3.88058 16.4629L4.37772 16.5162C4.50136 15.3634 4.6482 14.5118 4.80913 13.9071C4.97339 13.2898 5.14232 12.9708 5.28141 12.8371L4.93492 12.4766ZM4.86139 12.6169C4.80293 12.9773 4.7548 13.5493 4.80005 14.1058C4.82269 14.3843 4.86933 14.6669 4.95411 14.9204C5.03833 15.1723 5.16579 15.4122 5.36114 15.5859L5.69333 15.2122C5.58669 15.1174 5.49678 14.9666 5.4283 14.7619C5.36039 14.5588 5.31902 14.3189 5.2984 14.0652C5.25711 13.5574 5.30144 13.0268 5.35494 12.6969L4.86139 12.6169ZM7.95161 17.6067C7.89726 17.3755 7.83861 17.1376 7.77622 16.8966L7.29218 17.0219C7.35362 17.2592 7.41137 17.4936 7.46488 17.7211L7.95161 17.6067ZM7.77622 16.8966C7.72301 16.6911 7.66705 16.4833 7.6087 16.2756L7.12733 16.4108C7.18472 16.6151 7.23978 16.8195 7.29218 17.0219L7.77622 16.8966ZM7.42179 17.1826C7.69093 17.318 8.38598 17.5671 9.07704 17.4931L9.02378 16.9959C8.46215 17.0561 7.86632 16.8466 7.6466 16.736L7.42179 17.1826Z" fill="#B9BACC"/>
<path d="M35.7017 14.479C35.6502 14.499 35.6246 14.5569 35.6445 14.6084C35.6645 14.6599 35.7224 14.6855 35.7739 14.6655L35.7017 14.479ZM38.8672 21.9659C38.8187 21.9923 38.8009 22.053 38.8273 22.1015C38.8538 22.15 38.9145 22.1679 38.963 22.1414L38.8672 21.9659ZM36.573 14.476C36.4009 14.4279 36.0237 14.3544 35.7017 14.479L35.7739 14.6655C36.0325 14.5654 36.3558 14.623 36.5192 14.6686L36.573 14.476ZM40.0571 21.9559C39.9191 21.926 39.6971 21.8903 39.4756 21.8798C39.3648 21.8746 39.252 21.8756 39.1488 21.8875C39.047 21.8992 38.9472 21.9222 38.8672 21.9659L38.963 22.1414C39.0106 22.1155 39.0812 22.0965 39.1717 22.0861C39.2608 22.0759 39.3621 22.0747 39.4662 22.0796C39.6745 22.0895 39.8854 22.1233 40.0147 22.1514L40.0571 21.9559Z" fill="#B9BACC"/>
<path d="M6.22363 9.32273C7.31891 9.60292 9.24584 10.8625 8.19132 13.6593M13.101 11.6152C12.3496 11.2586 10.9575 9.86146 11.4007 7.12581" stroke="#B9BACC" stroke-width="0.5" stroke-linecap="round"/>
<path d="M9.75708 12.9527C10.2232 13.0312 11.2497 12.9792 11.6266 12.1431" stroke="#B9BACC" stroke-width="0.5" stroke-linecap="round" stroke-linejoin="round"/>
<mask id="path-11-inside-1" fill="white">
<ellipse cx="9.18302" cy="10.1124" rx="0.13248" ry="0.640334"/>
</mask>
<ellipse cx="9.18302" cy="10.1124" rx="0.13248" ry="0.640334" fill="#C4C4C4"/>
<path d="M8.8155 10.1124C8.8155 10.2658 8.80229 10.3903 8.78706 10.4639C8.7786 10.5048 8.77457 10.5049 8.78544 10.4827C8.79037 10.4726 8.81139 10.4305 8.85811 10.3842C8.90637 10.3365 9.01657 10.2527 9.18302 10.2527V11.2527C9.36776 11.2527 9.49582 11.16 9.56132 11.0952C9.62529 11.032 9.66295 10.9646 9.68373 10.9221C9.72629 10.8351 9.75081 10.7415 9.76633 10.6665C9.79905 10.5083 9.8155 10.3127 9.8155 10.1124H8.8155ZM9.18302 10.2527C9.34946 10.2527 9.45967 10.3365 9.50792 10.3842C9.55465 10.4305 9.57567 10.4726 9.5806 10.4827C9.59146 10.5049 9.58743 10.5048 9.57897 10.4639C9.56375 10.3903 9.55054 10.2658 9.55054 10.1124H8.55054C8.55054 10.3127 8.56698 10.5083 8.59971 10.6665C8.61522 10.7415 8.63974 10.8351 8.6823 10.9221C8.70308 10.9646 8.74074 11.032 8.80471 11.0952C8.87022 11.16 8.99828 11.2527 9.18302 11.2527V10.2527ZM9.55054 10.1124C9.55054 9.95904 9.56375 9.83451 9.57897 9.76093C9.58743 9.72002 9.59146 9.71989 9.5806 9.7421C9.57567 9.75217 9.55465 9.79436 9.50792 9.84058C9.45967 9.8883 9.34946 9.97208 9.18302 9.97208V8.97208C8.99828 8.97208 8.87022 9.06481 8.80471 9.12959C8.74074 9.19287 8.70308 9.26022 8.6823 9.3027C8.63974 9.38971 8.61522 9.48335 8.59971 9.55833C8.56698 9.71649 8.55054 9.91213 8.55054 10.1124H9.55054ZM9.18302 9.97208C9.01657 9.97208 8.90637 9.8883 8.85811 9.84058C8.81139 9.79436 8.79037 9.75217 8.78544 9.7421C8.77457 9.71989 8.7786 9.72002 8.78706 9.76093C8.80229 9.83451 8.8155 9.95904 8.8155 10.1124H9.8155C9.8155 9.91213 9.79905 9.71649 9.76633 9.55833C9.75081 9.48335 9.72629 9.38971 9.68373 9.3027C9.66295 9.26022 9.62529 9.19287 9.56132 9.12959C9.49582 9.06481 9.36776 8.97208 9.18302 8.97208V9.97208Z" fill="#B9BACC" mask="url(#path-11-inside-1)"/>
<mask id="path-13-inside-2" fill="white">
<ellipse cx="10.3658" cy="9.78778" rx="0.13248" ry="0.640334" transform="rotate(145.959 10.3658 9.78778)"/>
</mask>
<ellipse cx="10.3658" cy="9.78778" rx="0.13248" ry="0.640334" transform="rotate(145.959 10.3658 9.78778)" fill="#C4C4C4"/>
<path d="M10.6703 9.58205C10.5844 9.45496 10.5257 9.34438 10.4971 9.27488C10.4812 9.23625 10.4845 9.23388 10.4879 9.25836C10.4895 9.26947 10.4957 9.3162 10.4828 9.38065C10.4695 9.44721 10.4251 9.57832 10.2872 9.67149L9.72741 8.84286C9.57433 8.94627 9.52013 9.0948 9.50211 9.18515C9.48452 9.27339 9.49102 9.35028 9.49758 9.39711C9.51102 9.49304 9.54312 9.58436 9.57224 9.65517C9.63366 9.80455 9.72955 9.97587 9.84166 10.1418L10.6703 9.58205ZM10.2872 9.67149C10.1493 9.76467 10.0111 9.75694 9.94436 9.74441C9.87977 9.73227 9.83874 9.70907 9.82901 9.70348C9.80758 9.69116 9.81099 9.68902 9.8409 9.71818C9.89471 9.77063 9.97536 9.86643 10.0612 9.99351L10.8899 9.43373C10.7777 9.26777 10.6546 9.11486 10.5389 9.00212C10.4841 8.94867 10.4114 8.88481 10.3274 8.83653C10.2864 8.81296 10.2175 8.77823 10.1291 8.76161C10.0385 8.74459 9.8805 8.73944 9.72741 8.84286L10.2872 9.67149ZM10.0612 9.99351C10.1471 10.1206 10.2058 10.2312 10.2344 10.3007C10.2503 10.3393 10.247 10.3417 10.2436 10.3172C10.242 10.3061 10.2358 10.2594 10.2487 10.1949C10.262 10.1283 10.3064 9.99724 10.4443 9.90407L11.0041 10.7327C11.1572 10.6293 11.2114 10.4808 11.2294 10.3904C11.247 10.3022 11.2405 10.2253 11.2339 10.1784C11.2205 10.0825 11.1884 9.9912 11.1593 9.92039C11.0979 9.771 11.002 9.59969 10.8899 9.43373L10.0612 9.99351ZM10.4443 9.90407C10.5822 9.81089 10.7205 9.81862 10.7872 9.83115C10.8517 9.84329 10.8928 9.86649 10.9025 9.87208C10.9239 9.8844 10.9205 9.88654 10.8906 9.85738C10.8368 9.80493 10.7561 9.70913 10.6703 9.58205L9.84166 10.1418C9.95377 10.3078 10.0769 10.4607 10.1926 10.5734C10.2474 10.6269 10.3201 10.6908 10.4041 10.739C10.4451 10.7626 10.514 10.7973 10.6024 10.8139C10.693 10.831 10.851 10.8361 11.0041 10.7327L10.4443 9.90407Z" fill="#B9BACC" mask="url(#path-13-inside-2)"/>
<circle cx="6.37238" cy="7.86494" r="0.451721" fill="#B9BACC"/>
<circle cx="10.3355" cy="6.34716" r="0.451721" fill="#B9BACC"/>
<path d="M1.56201 4.55564C1.71038 4.47051 2.10929 4.31192 2.51793 4.35862" stroke="#B9BACC" stroke-width="0.5" stroke-linecap="round"/>
<path d="M10.6927 2.28142C10.6761 2.41849 10.7738 2.54307 10.9108 2.55968C11.0479 2.5763 11.1725 2.47865 11.1891 2.34158L10.6927 2.28142ZM11.2225 1.34034C11.0335 1.47112 10.7549 1.76875 10.6927 2.28142L11.1891 2.34158C11.2311 1.99506 11.4139 1.81593 11.5071 1.75144L11.2225 1.34034Z" fill="#B9BACC"/>
</svg>
