<svg width="41" height="24" viewBox="0 0 41 24" fill="none" xmlns="http://www.w3.org/2000/svg">
<path d="M12.4677 9.58359L9.04815 10.9782C8.84625 9.84933 8.96491 8.93039 9.16088 8.28668C9.34409 7.68493 9.9792 7.35494 10.5417 7.63645C11.4425 8.08723 12.1625 9.04 12.4677 9.58359Z" stroke="#B9BACC" stroke-width="0.5"/>
<path d="M33.3734 16.609C34.2947 12.9238 32.4537 5.73913 17.4721 7.04777C17.3404 6.08885 16.5131 3.94539 14.2569 3.04288M14.2569 3.04288C14.3697 1.72672 14.0538 -0.601008 11.8878 0.61738C11.2673 0.391753 9.94738 0.380471 9.63151 2.14037M14.2569 3.04288C14.2411 3.44794 13.8367 4.26458 13.6364 4.62227C13.14 2.41112 10.7596 2.04635 9.63151 2.14037M9.63151 2.14037C8.70428 2.14037 6.60183 2.46406 4.84957 3.68156M4.84957 3.68156C4.61202 3.84661 4.38091 4.02809 4.16003 4.22742C3.97201 4.8855 3.78775 6.6642 4.55489 8.51434C2.50543 7.79986 -0.826333 5.79553 2.2422 3.49413C2.38225 2.9798 3.0998 2.29723 4.84957 3.68156Z" stroke="#B9BACC" stroke-width="0.5"/>
<path d="M2.63702 7.51915C1.99774 9.06094 1.40735 13.2501 4.61126 15.6417C3.80276 18.1612 4.5774 23.2454 14.144 23.4259C18.0925 23.5575 26.6099 23.6628 29.0918 23.031C31.3857 22.9182 36.3232 22.6813 37.7221 22.6362C40.074 22.5603 42.645 20.6055 38.1169 20.6055H37.3272C37.0264 18.4245 34.9581 14.7956 29.0918 17.7288" stroke="#B9BACC" stroke-width="0.5"/>
<path d="M38.6409 20.6321C38.8626 21.0159 39.2754 21.8986 39.1526 22.3591" stroke="#B9BACC" stroke-width="0.5"/>
<path d="M35.5325 13.3066C35.7542 13.6904 36.0348 14.2879 35.912 14.7485" stroke="#B9BACC" stroke-width="0.5"/>
<path d="M31.6072 10.1467C32.6054 10.1059 34.888 10.7053 35.0836 13.3944C37.0393 12.7221 39.1564 14.6198 33.5948 15.1699" stroke="#B9BACC" stroke-width="0.5"/>
<path d="M7.98417 16.7911C8.01577 16.9255 8.15035 17.0089 8.28476 16.9773C8.41916 16.9457 8.5025 16.8111 8.47089 16.6767L7.98417 16.7911ZM4.64844 15.5595L4.39986 15.5329L4.38354 15.685L4.51166 15.7688L4.64844 15.5595ZM7.8873 15.4132L8.12798 15.3456L7.8873 15.4132ZM5.62745 11.7269L5.45421 11.5466L5.62745 11.7269ZM5.88043 14.6559C5.98363 14.7476 6.14165 14.7383 6.23337 14.6351C6.3251 14.5319 6.31581 14.3739 6.21261 14.2822L5.88043 14.6559ZM8.05348 16.0293L7.81146 16.0919L8.05348 16.0293ZM9.59633 16.5631C9.73361 16.5484 9.83298 16.4251 9.81827 16.2879C9.80356 16.1506 9.68035 16.0512 9.54306 16.0659L9.59633 16.5631ZM4.51166 15.7688C4.86314 15.9985 5.45361 16.2638 6.10235 16.3204C6.75922 16.3777 7.49103 16.2205 8.07226 15.5814L7.70235 15.245C7.25083 15.7415 6.68786 15.8696 6.14582 15.8223C5.59564 15.7743 5.08304 15.5449 4.78521 15.3503L4.51166 15.7688ZM8.12798 15.3456C7.81638 14.2364 7.43197 13.1141 7.02446 12.3542C6.82404 11.9805 6.60035 11.6599 6.35153 11.4851C6.22258 11.3945 6.07049 11.3316 5.90206 11.3391C5.73066 11.3467 5.5802 11.4255 5.45421 11.5466L5.8007 11.9071C5.86112 11.849 5.90169 11.8396 5.9243 11.8386C5.94987 11.8375 5.99475 11.8455 6.0641 11.8942C6.21188 11.9981 6.39012 12.2294 6.58383 12.5906C6.96458 13.3005 7.33726 14.3796 7.64662 15.4808L8.12798 15.3456ZM5.45421 11.5466C5.20842 11.7829 5.01213 12.2213 4.84524 12.8485C4.67502 13.4882 4.5248 14.3679 4.39986 15.5329L4.89701 15.5862C5.02064 14.4334 5.16749 13.5818 5.32842 12.9771C5.49268 12.3598 5.66161 12.0408 5.8007 11.9071L5.45421 11.5466ZM5.38068 11.6869C5.32221 12.0473 5.27409 12.6193 5.31933 13.1758C5.34198 13.4543 5.38862 13.7369 5.4734 13.9904C5.55762 14.2423 5.68508 14.4822 5.88043 14.6559L6.21261 14.2822C6.10598 14.1874 6.01607 14.0366 5.94759 13.8319C5.87968 13.6288 5.83831 13.3889 5.81769 13.1352C5.7764 12.6274 5.82073 12.0968 5.87423 11.7669L5.38068 11.6869ZM8.47089 16.6767C8.41654 16.4455 8.3579 16.2076 8.29551 15.9666L7.81146 16.0919C7.8729 16.3292 7.93065 16.5636 7.98417 16.7911L8.47089 16.6767ZM8.29551 15.9666C8.24229 15.7611 8.18634 15.5533 8.12798 15.3456L7.64662 15.4808C7.70401 15.6851 7.75907 15.8895 7.81146 16.0919L8.29551 15.9666ZM7.94108 16.2526C8.21022 16.388 8.90527 16.6371 9.59633 16.5631L9.54306 16.0659C8.98144 16.1261 8.38561 15.9166 8.16589 15.806L7.94108 16.2526Z" fill="#B9BACC"/>
<path d="M17.4568 14.2635C17.3258 14.2199 17.1842 14.2906 17.1405 14.4216C17.0969 14.5526 17.1677 14.6942 17.2987 14.7379L17.4568 14.2635ZM20.5206 15.1454L20.7583 15.2228C20.8009 15.0921 20.73 14.9515 20.5995 14.9081C20.469 14.8648 20.328 14.935 20.2839 15.0652L20.5206 15.1454ZM18.3165 18.4644C18.3545 18.3317 18.2776 18.1933 18.1448 18.1554C18.0121 18.1175 17.8737 18.1943 17.8358 18.3271L18.3165 18.4644ZM20.1651 16.9748C20.3501 16.4523 20.5475 15.8699 20.7583 15.2228L20.2829 15.0679C20.0732 15.7116 19.8771 16.29 19.6938 16.8079L20.1651 16.9748ZM20.2839 15.0652L19.6926 16.8112L20.1662 16.9716L20.7574 15.2256L20.2839 15.0652ZM17.2987 14.7379C17.2015 14.7055 17.1638 14.6285 17.1577 14.6165C17.1464 14.5936 17.1421 14.5754 17.1411 14.5713C17.1387 14.561 17.1391 14.5578 17.14 14.5691C17.1416 14.5887 17.1427 14.6238 17.1427 14.6777C17.1427 14.7834 17.1386 14.9378 17.132 15.1324C17.119 15.5183 17.0966 16.0551 17.0813 16.6412L17.5811 16.6543C17.5964 16.0704 17.6185 15.5407 17.6318 15.1492C17.6383 14.9551 17.6427 14.7929 17.6427 14.6776C17.6427 14.6209 17.6416 14.5693 17.6384 14.529C17.6369 14.5102 17.6342 14.4838 17.628 14.4573C17.6251 14.445 17.6187 14.4204 17.6051 14.3931C17.5968 14.3765 17.5565 14.2968 17.4568 14.2635L17.2987 14.7379ZM17.1459 16.8156C17.3619 17.0542 17.7586 17.3436 18.269 17.4656C18.7893 17.5899 19.4176 17.5369 20.0689 17.0988L19.7899 16.6839C19.2591 17.0409 18.775 17.0724 18.3852 16.9792C17.9853 16.8837 17.674 16.6539 17.5165 16.48L17.1459 16.8156ZM17.0813 16.6412C17.0578 17.5374 17.0501 18.5655 17.1178 19.3856C17.1515 19.7937 17.2049 20.1646 17.2899 20.446C17.3323 20.586 17.3865 20.7181 17.4599 20.8239C17.5331 20.9296 17.6426 21.0328 17.7987 21.0624L17.8919 20.5712C17.9122 20.575 17.9023 20.5845 17.8708 20.5391C17.8394 20.4937 17.8035 20.417 17.7685 20.3013C17.6989 20.071 17.6489 19.7419 17.6161 19.3444C17.5508 18.5534 17.5577 17.5486 17.5811 16.6543L17.0813 16.6412ZM17.7987 21.0624C18.0199 21.1044 18.2125 20.9795 18.3597 20.8322C18.5144 20.6774 18.6769 20.4418 18.8515 20.1262C19.2024 19.4919 19.6334 18.4767 20.1651 16.9748L19.6938 16.8079C19.1645 18.3031 18.7444 19.2869 18.414 19.8841C18.2479 20.1843 18.1121 20.3726 18.006 20.4787C17.8924 20.5924 17.8616 20.5654 17.8919 20.5712L17.7987 21.0624ZM18.0896 20.7637C18.0336 20.5058 17.9817 19.6363 18.3165 18.4644L17.8358 18.3271C17.4829 19.5623 17.5243 20.5166 17.601 20.8698L18.0896 20.7637Z" fill="#B9BACC"/>
<path d="M36.221 13.549C36.1695 13.569 36.1439 13.6269 36.1638 13.6784C36.1838 13.7299 36.2417 13.7555 36.2932 13.7355L36.221 13.549ZM39.3865 21.0359C39.338 21.0623 39.3202 21.123 39.3466 21.1715C39.3731 21.22 39.4338 21.2379 39.4823 21.2114L39.3865 21.0359ZM37.0923 13.546C36.9202 13.4979 36.543 13.4244 36.221 13.549L36.2932 13.7355C36.5518 13.6354 36.8751 13.693 37.0385 13.7386L37.0923 13.546ZM40.5764 21.0259C40.4384 20.996 40.2164 20.9603 39.9949 20.9498C39.8841 20.9446 39.7713 20.9456 39.6681 20.9575C39.5663 20.9692 39.4665 20.9922 39.3865 21.0359L39.4823 21.2114C39.5298 21.1855 39.6005 21.1665 39.691 21.1561C39.78 21.1459 39.8814 21.1447 39.9855 21.1496C40.1938 21.1595 40.4047 21.1933 40.534 21.2214L40.5764 21.0259Z" fill="#B9BACC"/>
<path d="M6.74292 8.39273C7.8382 8.67292 9.76513 9.93249 8.7106 12.7293M13.6203 10.6852C12.8688 10.3286 11.4768 8.93146 11.92 6.19581" stroke="#B9BACC" stroke-width="0.5" stroke-linecap="round"/>
<path d="M10.2764 12.0227C10.7425 12.1012 11.769 12.0492 12.1458 11.2131" stroke="#B9BACC" stroke-width="0.5" stroke-linecap="round" stroke-linejoin="round"/>
<mask id="path-12-inside-1" fill="white">
<ellipse cx="9.7023" cy="9.18241" rx="0.13248" ry="0.640334"/>
</mask>
<ellipse cx="9.7023" cy="9.18241" rx="0.13248" ry="0.640334" fill="#C4C4C4"/>
<path d="M9.33478 9.18241C9.33478 9.33578 9.32158 9.46031 9.30635 9.53389C9.29789 9.5748 9.29386 9.57493 9.30473 9.55273C9.30965 9.54265 9.33067 9.50046 9.3774 9.45424C9.42565 9.40652 9.53586 9.32274 9.7023 9.32274V10.3227C9.88704 10.3227 10.0151 10.23 10.0806 10.1652C10.1446 10.102 10.1822 10.0346 10.203 9.99212C10.2456 9.90511 10.2701 9.81147 10.2856 9.7365C10.3183 9.57833 10.3348 9.38269 10.3348 9.18241H9.33478ZM9.7023 9.32274C9.86875 9.32274 9.97895 9.40652 10.0272 9.45424C10.0739 9.50046 10.095 9.54265 10.0999 9.55273C10.1107 9.57493 10.1067 9.5748 10.0983 9.53389C10.083 9.46031 10.0698 9.33578 10.0698 9.18241H9.06982C9.06982 9.38269 9.08627 9.57833 9.119 9.7365C9.13451 9.81147 9.15903 9.90511 9.20159 9.99212C9.22237 10.0346 9.26003 10.102 9.324 10.1652C9.3895 10.23 9.51757 10.3227 9.7023 10.3227V9.32274ZM10.0698 9.18241C10.0698 9.02904 10.083 8.90451 10.0983 8.83093C10.1067 8.79002 10.1107 8.78989 10.0999 8.8121C10.095 8.82217 10.0739 8.86436 10.0272 8.91058C9.97895 8.9583 9.86875 9.04208 9.7023 9.04208V8.04208C9.51757 8.04208 9.3895 8.13481 9.324 8.19959C9.26003 8.26287 9.22237 8.33022 9.20159 8.3727C9.15903 8.45971 9.13451 8.55335 9.119 8.62832C9.08627 8.78649 9.06982 8.98213 9.06982 9.18241H10.0698ZM9.7023 9.04208C9.53586 9.04208 9.42565 8.9583 9.3774 8.91058C9.33067 8.86436 9.30965 8.82217 9.30473 8.8121C9.29386 8.78989 9.29789 8.79002 9.30635 8.83093C9.32158 8.90451 9.33478 9.02904 9.33478 9.18241H10.3348C10.3348 8.98213 10.3183 8.78649 10.2856 8.62832C10.2701 8.55335 10.2456 8.45971 10.203 8.3727C10.1822 8.33022 10.1446 8.26287 10.0806 8.19959C10.0151 8.13481 9.88704 8.04208 9.7023 8.04208V9.04208Z" fill="#B9BACC" mask="url(#path-12-inside-1)"/>
<mask id="path-14-inside-2" fill="white">
<ellipse cx="10.885" cy="8.85778" rx="0.13248" ry="0.640334" transform="rotate(145.959 10.885 8.85778)"/>
</mask>
<ellipse cx="10.885" cy="8.85778" rx="0.13248" ry="0.640334" transform="rotate(145.959 10.885 8.85778)" fill="#C4C4C4"/>
<path d="M11.1896 8.65205C11.1037 8.52496 11.045 8.41438 11.0164 8.34488C11.0005 8.30625 11.0038 8.30388 11.0072 8.32836C11.0088 8.33947 11.015 8.3862 11.0021 8.45065C10.9888 8.51721 10.9444 8.64832 10.8065 8.74149L10.2467 7.91286C10.0936 8.01627 10.0394 8.1648 10.0214 8.25515C10.0038 8.34339 10.0103 8.42028 10.0169 8.46711C10.0303 8.56304 10.0624 8.65436 10.0915 8.72517C10.1529 8.87455 10.2488 9.04587 10.3609 9.21183L11.1896 8.65205ZM10.8065 8.74149C10.6686 8.83467 10.5303 8.82694 10.4636 8.81441C10.3991 8.80227 10.358 8.77907 10.3483 8.77348C10.3269 8.76116 10.3303 8.75902 10.3602 8.78818C10.414 8.84063 10.4947 8.93643 10.5805 9.06351L11.4091 8.50373C11.297 8.33777 11.1739 8.18486 11.0582 8.07212C11.0034 8.01867 10.9307 7.95481 10.8467 7.90653C10.8057 7.88296 10.7368 7.84823 10.6484 7.83161C10.5578 7.81459 10.3998 7.80944 10.2467 7.91286L10.8065 8.74149ZM10.5805 9.06351C10.6664 9.1906 10.7251 9.30118 10.7537 9.37068C10.7696 9.40931 10.7663 9.41168 10.7629 9.3872C10.7613 9.37608 10.7551 9.32936 10.768 9.26491C10.7813 9.19835 10.8257 9.06724 10.9636 8.97407L11.5234 9.8027C11.6765 9.69929 11.7307 9.55076 11.7487 9.46041C11.7663 9.37217 11.7598 9.29528 11.7532 9.24845C11.7398 9.15252 11.7077 9.0612 11.6786 8.99039C11.6171 8.841 11.5213 8.66969 11.4091 8.50373L10.5805 9.06351ZM10.9636 8.97407C11.1015 8.88089 11.2397 8.88862 11.3064 8.90115C11.371 8.91329 11.4121 8.93649 11.4218 8.94208C11.4432 8.9544 11.4398 8.95654 11.4099 8.92738C11.3561 8.87493 11.2754 8.77913 11.1896 8.65205L10.3609 9.21183C10.4731 9.37779 10.5962 9.5307 10.7119 9.64344C10.7667 9.69689 10.8394 9.76075 10.9234 9.80903C10.9644 9.8326 11.0333 9.86733 11.1217 9.88395C11.2123 9.90096 11.3703 9.90612 11.5234 9.8027L10.9636 8.97407Z" fill="#B9BACC" mask="url(#path-14-inside-2)"/>
<circle cx="6.89166" cy="6.93494" r="0.451721" fill="#B9BACC"/>
<circle cx="10.8548" cy="5.41716" r="0.451721" fill="#B9BACC"/>
<path d="M2.0813 3.62565C2.22967 3.54052 2.62857 3.38193 3.03721 3.42863" stroke="#B9BACC" stroke-width="0.5" stroke-linecap="round"/>
<path d="M11.212 1.35142C11.1954 1.48849 11.2931 1.61307 11.4301 1.62968C11.5672 1.6463 11.6918 1.54865 11.7084 1.41158L11.212 1.35142ZM11.7417 0.410342C11.5528 0.541124 11.2742 0.838747 11.212 1.35142L11.7084 1.41158C11.7504 1.06506 11.9332 0.885927 12.0263 0.821439L11.7417 0.410342Z" fill="#B9BACC"/>
</svg>
